PathFileType	4	(X/Y/Z)	18_2_27_p1_0-451.trc
DataRate	CameraRate	NumFrames	NumMarkers	Units	OrigDataRate	OrigDataStartFrame	OrigNumFrames
60.0	60.0	6	27	m	60.0	339	452
Frame#	Time	RHip			RKnee			RAnkle			RBigToe			RSmallToe			RHeel			LHip			LKnee			LAnkle			LBigToe			LSmallToe			LHeel			Neck			Head			Nose			RShoulder			RElbow			RWrist			RThumb			RIndex			RPinky			LShoulder			LElbow			LWrist			LThumb			LIndex			LPinky			
		X1	Y1	Z1	X2	Y2	Z2	X3	Y3	Z3	X4	Y4	Z4	X5	Y5	Z5	X6	Y6	Z6	X7	Y7	Z7	X8	Y8	Z8	X9	Y9	Z9	X10	Y10	Z10	X11	Y11	Z11	X12	Y12	Z12	X13	Y13	Z13	X14	Y14	Z14	X15	Y15	Z15	X16	Y16	Z16	X17	Y17	Z17	X18	Y18	Z18	X19	Y19	Z19	X20	Y20	Z20	X21	Y21	Z21	X22	Y22	Z22	X23	Y23	Z23	X24	Y24	Z24	X25	Y25	Z25	X26	Y26	Z26	X27	Y27	Z27	
339	5.65	0.27284353968606656	0.3737308888324734	1.1536933766951967	0.24182323423078034	0.4688145539874455	1.5811464154289563	0.22154653305598576	0.6347942452052515	2.034372909248753	0.2163128588351409	0.39600517402136187	2.0409451750554637	0.2629553451729568	0.4486695375909135	2.054184714122489	0.20865893414952882	0.6891582980136846	2.0874590423153374	0.07265199204514507	0.3286002196062597	1.132766465734986	0.07318602332069749	0.4436334323968153	1.5675419058790232	0.0612746170636515	0.5877936908884426	2.023970796876965	0.06999423374245772	0.3920651356826208	2.0457316042336005	0.029758689843970836	0.4058929861208942	2.0266562211269425	0.08172213339359795	0.6484663076422329	2.0724930678162545	0.19953996328370188	0.2866296651734952	0.5807405405643186	0.20566286321747154	0.25590327734925955	0.3510648590697843	0.18965859979853275	0.23533309555539994	0.4677986517451933	0.33784120829324843	0.34162211496381023	0.6931595376711865	0.3782822303026148	0.42928101717620976	0.9535926517139303	0.4017555615319149	0.3809900423330656	1.1756439346244327	0.371970996922861	0.31808648897863456	1.2931670181677943	0.39669479479124087	0.33876631825927467	1.3247616243586338	0.3975341522320734	0.45095237670587085	1.3453404944574188	0.046679392358150384	0.31673638235184143	0.6660909756760074	-0.11055071640289381	0.20327273798633294	0.7845228108419422	0.05359661993015183	0.17010675684086662	0.6873417258209248	0.15820343111846896	0.17985210318176534	0.6710157733036924	0.15827570253401685	0.18068692279108983	0.6626010076632023	0.13522847735117796	0.1464379590822545	0.687188510420585
340	5.666666666666667	0.2733387715678626	0.3729576717298055	1.149754685455106	0.2418331650553793	0.4688394357387657	1.5810783441883296	0.22149386010861596	0.6347224119666663	2.0343133428362905	0.2161384887508915	0.3960241026635883	2.0407627422550405	0.26265405247876433	0.4488102200914771	2.0539838564630095	0.2050802428240495	0.6730159634902028	2.0801494137843295	0.07562138193549038	0.340831592608529	1.1349754119504345	0.07322578354442356	0.4437076583460521	1.5674804037069272	0.06129343746555653	0.5877072296603459	2.0239655989659022	0.06998894843914048	0.3917793730167176	2.0456571441936773	0.030066021448038435	0.40381565018500587	2.030467837585759	0.08181102822294975	0.6481706573820244	2.0723630408644027	0.1995315455941363	0.28673308429651373	0.5806167690561708	0.20575178195484606	0.25533193746133537	0.3476075882314413	0.18966700180347587	0.23534217044327335	0.4677646376695475	0.33783668923003374	0.3418016342168346	0.6931940972153139	0.378272137034983	0.4293176321652694	0.9536077883409025	0.40172660707074526	0.38092764822124486	1.1758990483590939	0.3729586083953961	0.31891523693575236	1.3017557330996874	0.39682639599462977	0.3387269820807622	1.3248409002122552	0.4013562431916833	0.4390209556176597	1.3460559900931108	0.04660912946817242	0.3166125171012942	0.6661904397468964	-0.11106455663971326	0.2039314381105359	0.787722757786204	0.0534061829373548	0.17223285111367143	0.6941144968260404	0.15817057021741984	0.1795327809708996	0.6710967593043099	0.1582431558016578	0.18054018552549525	0.6628450458209112	0.13797815410475606	0.15717221659514838	0.6878273316173737
341	5.683333333333334	0.27337889621352557	0.3728567463129448	1.149707363220958	0.24178404573502874	0.468622370731704	1.5810667793640907	0.22150277708309332	0.6346196766517515	2.034422050675575	0.21382600524758805	0.3857046288763177	2.039962925046585	0.2628669724115797	0.44820109781464057	2.054013734814695	0.2051339425773838	0.672751054270389	2.0804639644687017	0.07560075274254426	0.34025737062763894	1.134693149036014	0.07840093774490425	0.4289909891940897	1.5626444168585985	0.06125845161476387	0.5878340145852342	2.024089858400485	0.06767031812656044	0.37795357405988844	2.0388806066621337	0.0301320588641901	0.40344604506559745	2.0303490192296785	0.08175679901426461	0.6486195206293911	2.072817348450675	0.2029928672862312	0.2982898071886983	0.5804046397966139	0.2028115691722246	0.24638060410166093	0.3515127520770536	0.1896941616231532	0.2352651794792874	0.46777987955759254	0.33761797387152115	0.34239572161556153	0.6970464730370183	0.3783227294866415	0.4292490616010864	0.9535968771512477	0.40170412739694505	0.3807844837199619	1.1761638443942684	0.3734615266344559	0.3179649566570893	1.2984275788723894	0.3974147378927284	0.341438001300941	1.3287623130002533	0.4013636011995974	0.43903502214845647	1.3460797442382126	0.04461057175639369	0.3416821660770426	0.66721817038115	-0.11507087811281437	0.20209699521595553	0.7877880252416989	0.05292745618785579	0.1729808093546136	0.6973036475978185	0.15040395003235557	0.1895876946197248	0.6717826604312713	0.15443624625822935	0.1792562794345422	0.66314566049774	0.13194269873484596	0.13553336375585787	0.6871621013548491
342	5.7	0.27341733237345567	0.37290539827685704	1.1497333555703577	0.24184207943888442	0.46869397127141327	1.581188448097606	0.2171690917971177	0.6516946814724615	2.042205318255695	0.21717029559304554	0.3986114073658967	2.045939521114692	0.2626630829170843	0.4484756743392804	2.053813922473107	0.20866801979699734	0.6892427584881139	2.0874184784653393	0.075624813545103	0.34034012799594726	1.1347740784648357	0.07847156201063422	0.42880911099534147	1.5625513446311863	0.061666129218297124	0.5856947337507719	2.0278525367253497	0.07000038365321624	0.39123018725435604	2.0454158576935586	0.030088516965300956	0.4035420008843843	2.0304329687670357	0.0817726629945767	0.6485940627770405	2.072811350843656	0.2030098451607007	0.29832701610179124	0.5802062455052526	0.20282637784513383	0.2464273242546643	0.3515188959936289	0.18969622746542328	0.2352548653040739	0.4677822568547481	0.33782745822119076	0.3416176384367077	0.6930648574839978	0.3783247791960298	0.42930389771276545	0.9535705310940471	0.40516097703577125	0.3667351779266851	1.1733568616117551	0.37343781132685616	0.31782041451889403	1.2983562883112785	0.3974662472666012	0.34091537590740634	1.328627368761806	0.40151294827144546	0.43842008646379854	1.3459477234391595	0.04462929179803777	0.3420580097564977	0.6673198363714736	-0.11101194351654707	0.2039798187204325	0.7879972865515438	0.050688189486944264	0.16203494731324536	0.6969432409989365	0.15032416682711183	0.18951244996413932	0.6719212896915282	0.15435373895435875	0.179070799397807	0.6634011246514626	0.12629747116128057	0.11362277506138303	0.6863379070825467
343	5.716666666666667	0.27339687087487974	0.37278619858435613	1.1496871878987025	0.24190110853281183	0.46867495674494625	1.5810884942806651	0.22155477586001654	0.6348073872464449	2.034162080184807	0.21715450017010754	0.39876895767565884	2.045920090585407	0.2626820556765045	0.4485096546209433	2.053821990610024	0.20514671511500354	0.6728338663871659	2.0802665035300287	0.07267397288743938	0.3281272025585598	1.1323963852445125	0.07336873433029775	0.4435818715173939	1.5673702495572608	0.0616822658273445	0.5856407625202448	2.0278515574723213	0.07013229383000015	0.39132752672247945	2.0454311857392242	0.028892205959713653	0.4048668819090612	2.0350354261043626	0.08176030484946678	0.6485245804396168	2.0726287013865345	0.19889233092199413	0.31066983940736514	0.5802580958448812	0.20282214403511234	0.24645311568699416	0.3515158146881376	0.18956305079483637	0.23586823663331755	0.4645877674746651	0.33779296221318134	0.34166424158798836	0.6930102421694335	0.3783184596443895	0.4293296290435801	0.9535255706223376	0.4051871022448164	0.3667022036922057	1.1733823396187903	0.3735095767861908	0.31760477015122746	1.2983719459253962	0.39747971923094344	0.3404873432952802	1.3285632518665291	0.4014522282084022	0.4381710792147948	1.3458739364982586	0.044573738793150776	0.342112441618371	0.6672464730363549	-0.11102405280193646	0.2060201355188964	0.7915807637219536	0.05060073520241678	0.1620105372543919	0.6970549202548137	0.15035279021922504	0.18936161046927164	0.6719015088440939	0.15432271593248553	0.17772105671732294	0.6669683332162453	0.12196951281969351	0.11174188925007285	0.6865698859375551
344	5.733333333333333	0.27339878107088544	0.37266698066208753	1.1496813896593379	0.24572829141095165	0.48187533122204	1.5853232691162755	0.22156434387256327	0.6349091480925296	2.0341479989916906	0.21716055367077708	0.3987609734093621	2.0458582942719024	0.26269699760262843	0.44851582361552383	2.053813940318983	0.20867378528622602	0.6892255082932376	2.087333341122128	0.07514778944051803	0.3377368835356015	1.130196239278882	0.07331018286977002	0.4435517132760872	1.5673396050198327	0.06164946253760952	0.5856432359883235	2.0277882966515706	0.07010893128626612	0.3914410711016112	2.0454402344660214	0.028911608966883006	0.40495853567996454	2.034939530746858	0.08175530525441788	0.6482931061821215	2.0724158423024406	0.20301571763999815	0.2983640116906852	0.580229458737158	0.202699003482201	0.24467527948635565	0.34854287127493383	0.18967008170574742	0.23519275553773808	0.4677650624332984	0.3377947192261329	0.3417256683460667	0.6929052492989551	0.37829750411072705	0.4293551966255257	0.9535899161106004	0.4051392039820087	0.3668123054676389	1.1733593355828131	0.3741556934384413	0.3199506665238621	1.302431174137042	0.3939357474507856	0.32871773497700385	1.3255642258509204	0.40135513376408666	0.4387013630810461	1.3460180097874277	0.0445925911109411	0.3421014839492992	0.6672051168408192	-0.1157862555438633	0.2174324791167182	0.7926856286535656	0.05020463538042652	0.16255661646847247	0.7002626556517547	0.14664222945290808	0.18883261643471103	0.6722286982247334	0.15409584572194163	0.17755515134433505	0.6671157749968141	0.11809732602784129	0.11020696644040297	0.6867130774268204
